<svg id="Layer_1" data-name="Layer 1" xmlns="http://www.w3.org/2000/svg" viewBox="0 0 853.09 343.02"><defs><style>.cls-1,.cls-3,.cls-4,.cls-5,.cls-6{fill:none;stroke-miterlimit:10;}.cls-1,.cls-3,.cls-4,.cls-5{stroke:#231f20;}.cls-1{stroke-width:17.68px;}.cls-2,.cls-7{fill:#231f20;}.cls-3{stroke-width:7px;}.cls-4{stroke-width:2.44px;}.cls-5{stroke-linecap:round;stroke-width:23px;}.cls-6{stroke:#fff;stroke-width:3.5px;}.cls-7{font-size:43px;font-family:Lato-Semibold, Lato;font-weight:600;letter-spacing:0.19em;}.cls-8{letter-spacing:0.2em;}.cls-9{letter-spacing:0.17em;}.cls-10{letter-spacing:0.2em;}.cls-11{letter-spacing:0.18em;}.cls-12{letter-spacing:0.17em;}.cls-13{letter-spacing:0.2em;}.cls-14{letter-spacing:0.2em;}.cls-15{letter-spacing:0.19em;}</style></defs><path class="cls-1" d="M794.1,237.25" transform="translate(-20.86 -34.11)"/><path class="cls-2" d="M694.85,218.37l1-2.71a.47.47,0,0,0-.37-.63c-3.37-.55-20.6-2.9-21.66,5.26-.81,6.2,13,9.47,8.15,12.56-5.87,3.75-13.88-2.41-15.49-3.73a.47.47,0,0,0-.58,0c-1.3,1-7,4.67-17.22,5.14-5.46.25-7.25-2.78-7.78-4.15a.47.47,0,0,1,.44-.64c3.92,0,24.39-.4,23.56-10.2-1-11.53-29-7.17-28.85,8a11.51,11.51,0,0,0,.66,3.77c-2.29.94-9.07,3.35-14.7,1.6-6-1.86-10.8-12-12.62-16.38,6.79-.65,30.78-3.93,29.2-17.59-1.9-16.48-25.93-8.88-28.51-8a.45.45,0,0,0-.3.3l-1,2.91a.47.47,0,0,0,.59.6c4.15-1.29,21.58-6,24,4.53,2.21,9.81-20,13.17-23,13.58.62-1.2,1.19-2.29,1.68-3.17,1.24-2.23,4.75-7.86,6-9.88a.48.48,0,0,0-.41-.73l-4.76.09a.48.48,0,0,0-.4.22c-.75,1.23-4.43,7.21-5.65,9.41-2.47,4.44-7.08,13.5-9.25,18.09-1.07,2.27-3.7,8.4-4.56,10.43a.47.47,0,0,0,.44.66h4.48a.47.47,0,0,0,.43-.28c.72-1.51,4.22-9,5.5-11.62.77-1.62,1.86-3.89,3-6.3,1,3.35,5.51,15.66,15.15,18,6,1.44,14.12-1.95,16.67-3.13,3,3.28,8.81,5.1,18.95,2.56a41.82,41.82,0,0,0,7-2.73.49.49,0,0,1,.53.08,16,16,0,0,0,3.08,2.18c6.33,3.48,17,1.28,18.75-2.09,4.1-7.8-9.25-9.39-8-13.33,1.16-3.74,13.16-2.57,15.42-2.31A.48.48,0,0,0,694.85,218.37Zm-53.76,7c.77-3.52,5-7.89,10.44-8.83s9.14.48,9.55,2.84-2.41,4-7.59,5.27S640.75,226.92,641.09,225.35Z" transform="translate(-20.86 -34.11)"/><path class="cls-2" d="M781,220.82c-.81,6.19,13,9.47,8.16,12.55-5.82,3.72-13.74-2.29-15.45-3.69a.47.47,0,0,0-.64,0l-2.35,2.42a.47.47,0,0,0,0,.62,16.09,16.09,0,0,0,4.94,4.18c6.33,3.48,16.73,1.52,18.5-1.86,4.11-7.8-9.24-9.63-8-13.57,1.16-3.74,13-2.55,15.2-2.3a.48.48,0,0,0,.49-.28l1.2-2.73a.47.47,0,0,0-.36-.66C799.21,215,782.1,212.69,781,220.82Z" transform="translate(-20.86 -34.11)"/><path class="cls-2" d="M765,233.81a5.49,5.49,0,0,1-5.76-4.94,52.26,52.26,0,0,0,3.8-9.79.47.47,0,0,1,.44-.34l12.82-.36a.46.46,0,0,0,.45-.37l.44-2.09a.48.48,0,0,0-.47-.58h-12.1a.47.47,0,0,1-.46-.58A118.31,118.31,0,0,0,766.74,198a.48.48,0,0,0-.48-.51h-3.88a.46.46,0,0,0-.47.46A87.7,87.7,0,0,1,759.78,215a.48.48,0,0,1-.47.36h-8.63a.48.48,0,0,0-.46.37l-.58,2.46a.48.48,0,0,0,.47.58h8a.47.47,0,0,1,.45.61c-2.55,8.14-6.55,14.14-12,14a8,8,0,0,1-7.7-5c6.37-12.6,8.2-33.11,8.47-36.59a.48.48,0,0,0-.48-.51H743a.47.47,0,0,0-.47.46c-.42,16.26-6.26,41.91-16,41.61a7.44,7.44,0,0,1-6.85-4.36.5.5,0,0,1,0-.43,34.37,34.37,0,0,0,2.74-13,.46.46,0,0,0-.5-.48l-3.15.17a.46.46,0,0,0-.44.4c-.39,2.68-3,18.44-12.65,18.42-11.65,0-5.58-14.85-4.2-17.93a.47.47,0,0,0-.35-.66l-3.29-.56a.47.47,0,0,0-.51.26c-1.32,2.84-10.21,23.21,8.2,23a15.14,15.14,0,0,0,10.2-4.07.49.49,0,0,1,.7.06c1.28,1.65,4,4.07,10.52,4.07,3.18,0,6.21-1.9,8.54-4.49a.48.48,0,0,1,.75.05c1.1,1.68,3.74,4.44,10.82,4.44,3.44,0,6.64-1.93,9-4.53a.48.48,0,0,1,.72,0,11.55,11.55,0,0,0,9.66,4.5,19.07,19.07,0,0,0,6.71-1.8.47.47,0,0,0,.14-.77l-2.9-2.82a.47.47,0,0,0-.57-.07A9.14,9.14,0,0,1,765,233.81Z" transform="translate(-20.86 -34.11)"/><circle class="cls-3" cx="155.28" cy="59.53" r="26.98"/><path class="cls-2" d="M176.14,99.75A6.11,6.11,0,1,0,170,93.64a6.17,6.17,0,0,0,6.11,6.11Z" transform="translate(-20.86 -34.11)"/><line class="cls-4" x1="155.28" y1="59.53" x2="170.68" y2="44.87"/><circle class="cls-3" cx="99.41" cy="86.53" r="26.98"/><path class="cls-2" d="M120.27,126.74a6.11,6.11,0,1,0-6.11-6.11,6.17,6.17,0,0,0,6.11,6.11Z" transform="translate(-20.86 -34.11)"/><line class="cls-4" x1="99.41" y1="86.53" x2="84.93" y2="70.95"/><circle class="cls-3" cx="211.65" cy="86.53" r="26.98"/><path class="cls-2" d="M232.51,126.74a6.11,6.11,0,1,0-6.11-6.11,6.17,6.17,0,0,0,6.11,6.11Z" transform="translate(-20.86 -34.11)"/><line class="cls-4" x1="211.65" y1="86.53" x2="215.9" y2="65.69"/><path class="cls-1" d="M814.67,87" transform="translate(-20.86 -34.11)"/><path class="cls-1" d="M35.83,105.62" transform="translate(-20.86 -34.11)"/><rect class="cls-2" x="486.59" y="92.16" width="8.55" height="48.37"/><polygon class="cls-2" points="541.45 133.53 512.94 92.16 502.24 92.16 536.3 140.53 547.47 140.53 580.66 92.16 569.09 92.16 541.45 133.53"/><polygon class="cls-2" points="587.76 140.53 680.68 140.53 680.68 131.97 596.31 131.97 596.31 122.09 680.68 122.09 680.68 112.7 596.31 112.7 596.31 100.71 680.68 100.71 680.68 92.16 587.76 92.16 587.76 140.53"/><polygon class="cls-2" points="773.59 92.16 773.59 131.41 697.78 92.16 689.23 92.16 689.23 140.53 697.78 140.53 697.78 101.27 773.59 140.53 782.14 140.53 782.14 92.16 773.59 92.16"/><path class="cls-2" d="M387.38,126.26H304.52v48.37h82.86a10.05,10.05,0,0,0,10.05-10V136.31A10.05,10.05,0,0,0,387.38,126.26Zm1.5,34.08a5.74,5.74,0,0,1-5.74,5.74H313.07V134.82h70.07a5.74,5.74,0,0,1,5.74,5.74Z" transform="translate(-20.86 -34.11)"/><path class="cls-2" d="M488.85,126.26H406v48.37h8.55V159H473.9l14.29,15.63H498.9L484.61,159h4.24a10.05,10.05,0,0,0,10-10.05V136.31A10.05,10.05,0,0,0,488.85,126.26Zm1.5,18.45a5.74,5.74,0,0,1-5.74,5.74H414.53V134.82h70.08a5.74,5.74,0,0,1,5.74,5.74Z" transform="translate(-20.86 -34.11)"/><path class="cls-2" d="M66,91.25c-3.4.55-6.77,1.1-10.08,1.67-7.53,1.3-23.45,4.39-35.1,8.45l16.69,12.91c5.81-1.15,11.91-2.28,18.15-3.38A129.78,129.78,0,0,1,66,91.25Z" transform="translate(-20.86 -34.11)"/><path class="cls-2" d="M273.31,72.42A108.56,108.56,0,0,1,286,89.66c276.36-29.79,321.35,26.6,321.35,26.6h93.17S643.05,28.73,273.31,72.42Z" transform="translate(-20.86 -34.11)"/><path class="cls-2" d="M61.46,140.65l-12.9,3.73,2.55-12.52C58,103.91,73,80,94.7,62.67A134.09,134.09,0,0,1,240.26,49.78c24.25,13.21,39.88,29.68,51.48,56l2.45,6.66-7.8,8.22-2.45-5.56c-24.62-55.8-76.65-71.88-117.15-68.33-51.11,4.49-91.89,39-103.88,88Z" transform="translate(-20.86 -34.11)"/><circle class="cls-5" cx="155.28" cy="131.01" r="108.42"/><circle class="cls-2" cx="155.28" cy="131.01" r="32.27"/><path d="M153.42,188c7.21,3.23,9,8.17,9.68,11.43a24.77,24.77,0,0,1,.42,3.08l4.69,57.09c0,1.51-.93,2-3.63,5a.91.91,0,0,0,.55,1.52l4.79.64c2.24.6,10.83.27,11.84,0l3.73-.5a1.48,1.48,0,0,0,.88-2.47c-2.14-2.31-2.89-2.82-2.89-4.18L188,204.54a20.56,20.56,0,0,1,6.28-13.32,20.1,20.1,0,0,1,4.64-3.24.91.91,0,0,0-.42-1.72H153.78A.91.91,0,0,0,153.42,188Zm19.89,15.38a2.83,2.83,0,0,1,5.66,0c.05,1.78.08,3.6.08,5.46,0,11-1,31.75-1.85,42.86a1.06,1.06,0,0,1-2.12,0c-.83-11.11-1.85-31.87-1.85-42.86C173.23,207,173.26,205.17,173.31,203.39Z" transform="translate(-20.86 -34.11)"/><path d="M201.84,184.33c2-7.64,6.58-10.22,9.69-11.42a25.4,25.4,0,0,1,3-.93l56.71-14c1.49-.24,2.09.6,5.52,2.77a.91.91,0,0,0,1.4-.8l-.14-4.83c.21-2.31-1.52-10.73-2-11.69l-1.11-3.59a1.48,1.48,0,0,0-2.58-.46c-1.94,2.49-2.31,3.32-3.65,3.54l-56.23,4.6a20.56,20.56,0,0,1-14.17-4,20,20,0,0,1-3.95-4,.92.92,0,0,0-1.64.69l7.35,44.1A.91.91,0,0,0,201.84,184.33Zm11.91-22.15a2.83,2.83,0,0,1-.93-5.58q2.61-.51,5.37-1c10.83-1.8,31.48-4.21,42.58-5.22a1.06,1.06,0,0,1,.35,2.09c-10.83,2.65-31.14,7.07-42,8.88Q216.4,161.82,213.75,162.18Z" transform="translate(-20.86 -34.11)"/><path d="M152.23,183.4l7.35-44.09a.92.92,0,0,0-1.64-.7,19.51,19.51,0,0,1-4,4,20.42,20.42,0,0,1-14.16,4l-56.23-4.59c-1.34-.23-1.72-1.06-3.65-3.55a1.48,1.48,0,0,0-2.58.47l-1.11,3.59c-.43,1-2.16,9.38-2,11.68l-.14,4.83a.91.91,0,0,0,1.4.8c3.43-2.17,4-3,5.52-2.76l56.71,14a26,26,0,0,1,3,.92c3.11,1.2,7.68,3.78,9.69,11.42A.91.91,0,0,0,152.23,183.4Zm-19.09-22.89c-10.84-1.81-32.32-6.22-43.14-8.87a1.07,1.07,0,0,1,.35-2.1c11.09,1,32.91,3.42,43.74,5.23,1.84.3,3.63.63,5.37,1a2.83,2.83,0,0,1-.93,5.59Q135.89,161,133.14,160.51Z" transform="translate(-20.86 -34.11)"/><circle class="cls-6" cx="155.28" cy="131.01" r="18.51"/><text class="cls-7" transform="translate(8.61 331.09)">C<tspan class="cls-8" x="36.72" y="0">ollision - </tspan><tspan class="cls-9" x="302.89" y="0">R</tspan><tspan class="cls-10" x="337.38" y="0">epai</tspan><tspan class="cls-11" x="451.14" y="0">r</tspan><tspan class="cls-10" x="474.7" y="0" xml:space="preserve"> - </tspan><tspan class="cls-12" x="537.93" y="0">R</tspan><tspan class="cls-13" x="572.42" y="0">es</tspan><tspan class="cls-14" x="631.22" y="0">t</tspan><tspan class="cls-10" x="655.39" y="0">o</tspan><tspan class="cls-15" x="688.54" y="0">r</tspan><tspan class="cls-13" x="712.68" y="0">ation</tspan></text></svg>