<svg id="Layer_1" data-name="Layer 1" xmlns="http://www.w3.org/2000/svg" viewBox="0 0 730.82 278.68"><defs><style>.cls-1{fill:#231f20;}.cls-2,.cls-3,.cls-4,.cls-5,.cls-6{fill:none;stroke-miterlimit:10;}.cls-2,.cls-3,.cls-4,.cls-5{stroke:#231f20;}.cls-2{stroke-width:5.39px;}.cls-3{stroke-width:2.44px;}.cls-4{stroke-width:17.68px;}.cls-5{stroke-linecap:round;stroke-width:11.05px;}.cls-6{stroke:#fff;stroke-width:3.5px;}</style></defs><path class="cls-1" d="M607.58,222.47a25,25,0,0,1-11.81-2.67,24.05,24.05,0,0,1-4.63-3.27,62.36,62.36,0,0,1-10.27,4,53.43,53.43,0,0,1-12.76,1.77c-6.7,0-11.85-1.8-15.31-5.33-3.66,1.65-11.88,4.92-19.49,4.92a21.43,21.43,0,0,1-4.89-.53c-13-3.12-19.71-18.18-22.1-25-1.38,2.84-2.63,5.46-3.62,7.52-1.87,3.92-7,14.84-8,17a1.46,1.46,0,0,1-1.32.84h-6.56a1.46,1.46,0,0,1-1.34-2c1.5-3.51,5.14-12,6.68-15.28,3.06-6.46,9.79-19.72,13.55-26.5,1.79-3.22,7.21-12,8.28-13.78a1.47,1.47,0,0,1,1.22-.69l7-.13a1.47,1.47,0,0,1,1.27,2.24c-1.6,2.54-7,11.11-8.79,14.41-.5.9-1.1,2-1.77,3.3,5.82-.91,24.78-4.43,30.31-12.38a7.68,7.68,0,0,0,1.29-6.34c-1.37-6.11-6.62-9.21-15.59-9.21-7.52,0-15.42,2.2-18.47,3.15a1.35,1.35,0,0,1-.44.07,1.46,1.46,0,0,1-1.18-.61,1.43,1.43,0,0,1-.2-1.31l1.42-4.25a1.49,1.49,0,0,1,.92-.93c1.84-.61,11.5-3.69,21.12-3.69,12.91,0,20.37,5.55,21.59,16a15.22,15.22,0,0,1-3.45,11.71c-8.4,10.4-29.26,13.75-38.91,14.76,2.83,6.63,9.47,20.06,17.57,22.57a21,21,0,0,0,6.23.87,41.19,41.19,0,0,0,14.08-2.93,17.38,17.38,0,0,1-.77-5.07,18.32,18.32,0,0,1,5.6-13.23c5.31-5.36,14.2-8.82,22.63-8.82,9,0,14.94,3.93,15.48,10.26a9.44,9.44,0,0,1-2.58,7.44c-7.08,7.7-26.6,8.3-32.41,8.3H557c.7,1.74,3,5.5,9.7,5.5.29,0,.58,0,.88,0,14.61-.67,22.66-5.81,24.78-7.37a1.45,1.45,0,0,1,1.78.05c1.43,1.18,8.89,7,16,7h0a10.66,10.66,0,0,0,5.8-1.62c.75-.48,1.14-.95,1.15-1.39,0-1.23-2.45-3-4.85-4.76-4.12-3-9.23-6.65-8.58-11.67.81-6.17,7.54-9.43,19.49-9.43a88.14,88.14,0,0,1,13.07,1.07,1.46,1.46,0,0,1,1,.71,1.42,1.42,0,0,1,.1,1.24l-1.49,4a1.46,1.46,0,0,1-1.36.95h-.16a89.74,89.74,0,0,0-9.37-.54c-7.3,0-11.69,1.2-12.37,3.38-.54,1.76,2,3.37,4.83,5.23,4.54,2.94,10.77,7,6.85,14.4C622.41,219.87,615.26,222.47,607.58,222.47ZM557.25,203a5.74,5.74,0,0,0,2.53.34,73.08,73.08,0,0,0,14.64-2.21c7.56-1.86,11-4.1,10.53-6.83-.42-2.39-3.76-3.94-8.53-3.94a27.35,27.35,0,0,0-4.55.41C564.48,192.08,558.37,198.13,557.25,203Z" transform="translate(-66.59 -58.31)"/><path class="cls-1" d="M635.09,192.76l1.49-4a.7.7,0,0,0-.54-.93c-4.93-.79-30.13-4.23-31.68,7.7-1.18,9.06,19,13.85,11.93,18.36-8.59,5.48-20.3-3.52-22.65-5.46a.69.69,0,0,0-.85,0c-1.91,1.4-10.2,6.83-25.19,7.52-8,.36-10.6-4.08-11.37-6.07a.69.69,0,0,1,.65-.94c5.73,0,35.66-.59,34.44-14.92-1.43-16.85-42.38-10.48-42.19,11.73a16.79,16.79,0,0,0,1,5.51c-3.35,1.38-13.26,4.91-21.49,2.35-8.81-2.73-15.8-17.55-18.46-24,9.93-.95,45-5.75,42.71-25.72-2.79-24.1-37.93-13-41.71-11.72a.7.7,0,0,0-.43.44l-1.42,4.25a.69.69,0,0,0,.86.88c6.08-1.89,31.56-8.82,35,6.62,3.23,14.34-29.28,19.26-33.71,19.86.91-1.76,1.75-3.36,2.46-4.64,1.82-3.27,6.95-11.49,8.81-14.45a.69.69,0,0,0-.6-1.06l-7,.13a.66.66,0,0,0-.58.33c-1.1,1.78-6.48,10.53-8.26,13.74-3.61,6.5-10.35,19.75-13.53,26.46-1.57,3.32-5.41,12.28-6.67,15.25a.69.69,0,0,0,.64,1h6.56a.69.69,0,0,0,.63-.39c1-2.22,6.17-13.11,8-17,1.14-2.37,2.73-5.69,4.44-9.21,1.53,4.9,8.06,22.89,22.15,26.26,8.82,2.1,20.65-2.85,24.38-4.57,4.36,4.79,12.89,7.44,27.71,3.74a62,62,0,0,0,10.17-4,.69.69,0,0,1,.76.11,23.15,23.15,0,0,0,4.52,3.19c9.25,5.09,24.81,1.87,27.41-3.06,6-11.4-13.52-13.73-11.74-19.49,1.69-5.46,19.25-3.75,22.55-3.38A.69.69,0,0,0,635.09,192.76ZM556.48,203c1.12-5.14,7.38-11.54,15.26-12.9s13.36.69,14,4.15-3.52,5.83-11.1,7.7C566.84,203.81,556,205.25,556.48,203Z" transform="translate(-66.59 -58.31)"/><path class="cls-1" d="M765.05,223.34a25.8,25.8,0,0,1-12.17-2.77,24.43,24.43,0,0,1-7.46-6.31,1.46,1.46,0,0,1,.11-1.9l3.45-3.55a1.45,1.45,0,0,1,2-.12c2,1.64,9,7,15.89,7h0a10.58,10.58,0,0,0,5.8-1.63c.75-.48,1.14-.94,1.15-1.39,0-1.23-2.45-3-4.85-4.75-4.11-3-9.23-6.65-8.58-11.67.81-6.17,7.55-9.44,19.49-9.44a87.55,87.55,0,0,1,13,1.07,1.42,1.42,0,0,1,1,.74,1.46,1.46,0,0,1,.06,1.29l-1.76,4a1.44,1.44,0,0,1-1.33.87h-.17a86.91,86.91,0,0,0-9.23-.54c-7.18,0-11.51,1.2-12.18,3.38-.55,1.77,1.94,3.43,4.82,5.35,4.55,3,10.77,7.19,6.86,14.62C779.22,220.9,772.52,223.34,765.05,223.34Z" transform="translate(-66.59 -58.31)"/><path class="cls-1" d="M761.12,196.33c-1.18,9.06,19,13.85,11.93,18.36-8.51,5.43-20.09-3.36-22.58-5.41a.71.71,0,0,0-.94.06l-3.45,3.55a.69.69,0,0,0-.05.9,23.53,23.53,0,0,0,7.22,6.11c9.26,5.09,24.46,2.22,27.06-2.71,6-11.41-13.52-14.09-11.73-19.85,1.69-5.47,19-3.74,22.23-3.37a.68.68,0,0,0,.71-.41l1.76-4a.69.69,0,0,0-.53-1C787.7,187.81,762.67,184.44,761.12,196.33Z" transform="translate(-66.59 -58.31)"/><path class="cls-1" d="M739.69,222.67c-6.19,0-11-2.22-14.66-6.8-4.09,4.39-8.95,6.8-13.72,6.8-7.88,0-13.4-2.27-16.41-6.75-3.93,4.36-8.55,6.75-13,6.75-7.44,0-12.66-2-15.94-6.18a23,23,0,0,1-15.37,6.1h-.33c-7.21,0-12.24-2.16-15-6.43-5.85-9.19,1.14-25.23,2.6-28.35a1.46,1.46,0,0,1,1.32-.84l.24,0,4.81.82a1.46,1.46,0,0,1,1.05.75,1.47,1.47,0,0,1,0,1.28c-1.14,2.53-6.61,15.44-2.6,21.66,1.49,2.3,4.19,3.47,8,3.48,5.61,0,10.18-3.88,13.61-11.54a59.67,59.67,0,0,0,4.12-14.73,1.47,1.47,0,0,1,1.37-1.25l4.61-.25h.08a1.44,1.44,0,0,1,1.45,1.48c0,2.52-.44,11.34-4.06,19.24,1.53,2.77,4,5.93,9.33,5.94h.25c12.94,0,21.79-35,22.44-60.1a1.45,1.45,0,0,1,1.46-1.42h5.67a1.44,1.44,0,0,1,1.07.47,1.46,1.46,0,0,1,.39,1.1c-.45,5.72-3.11,35-12.3,53.49a10.88,10.88,0,0,0,10.42,6.46h.33c6.6,0,12.45-7,16.48-19.8H715.89a1.46,1.46,0,0,1-1.42-1.79l.83-3.59a1.45,1.45,0,0,1,1.42-1.13H729.3a126.76,126.76,0,0,0,3.08-24.76,1.44,1.44,0,0,1,1.45-1.42h5.68a1.46,1.46,0,0,1,1.46,1.56,173.82,173.82,0,0,1-3.72,24.62h17.6a1.47,1.47,0,0,1,1.14.54,1.48,1.48,0,0,1,.29,1.22l-.64,3.05a1.45,1.45,0,0,1-1.39,1.16l-18.68.52a77.27,77.27,0,0,1-5.48,14.18,7.21,7.21,0,0,0,7.62,6.33h.16a12.31,12.31,0,0,0,6.39-1.31,1.52,1.52,0,0,1,.72-.19,1.48,1.48,0,0,1,1,.41l4.25,4.13a1.46,1.46,0,0,1-.42,2.38C747.56,221,743.22,222.67,739.69,222.67Z" transform="translate(-66.59 -58.31)"/><path class="cls-1" d="M737.71,215.33c-6.67,0-8.11-5.23-8.42-7.23a76.39,76.39,0,0,0,5.56-14.31.68.68,0,0,1,.64-.5l18.74-.52a.69.69,0,0,0,.66-.55l.64-3.06a.7.7,0,0,0-.68-.84H737.16a.69.69,0,0,1-.68-.85,169.88,169.88,0,0,0,3.72-24.58.69.69,0,0,0-.69-.75h-5.68a.69.69,0,0,0-.69.67,127.21,127.21,0,0,1-3.11,25,.71.71,0,0,1-.68.53H716.72a.69.69,0,0,0-.67.54l-.84,3.59a.69.69,0,0,0,.68.85h11.73a.69.69,0,0,1,.66.9c-3.73,11.9-9.59,20.68-17.56,20.43a11.67,11.67,0,0,1-11.26-7.25c9.31-18.43,12-48.42,12.37-53.52a.68.68,0,0,0-.69-.74h-5.67a.69.69,0,0,0-.69.67c-.62,23.78-9.15,61.28-23.46,60.84-6.26,0-8.82-4.19-10-6.37a.65.65,0,0,1,0-.62c3.56-7.76,4-16.42,4-19a.69.69,0,0,0-.73-.7l-4.61.25a.68.68,0,0,0-.65.59c-.56,3.92-4.45,27-18.49,26.93-17,0-8.17-21.72-6.14-26.22a.69.69,0,0,0-.52-1l-4.8-.81a.68.68,0,0,0-.75.38c-1.93,4.14-14.94,33.93,12,33.69a22.23,22.23,0,0,0,14.92-5.95.69.69,0,0,1,1,.09c1.88,2.4,5.81,5.95,15.39,5.95,4.64,0,9.08-2.78,12.49-6.57a.69.69,0,0,1,1.09.07c1.61,2.46,5.47,6.5,15.82,6.5,5,0,9.71-2.83,13.22-6.62a.68.68,0,0,1,1,0c1.95,2.44,5.95,6.58,14.12,6.58,3.48,0,7.93-1.79,9.83-2.63a.69.69,0,0,0,.2-1.13L745.47,214a.7.7,0,0,0-.82-.11A13.37,13.37,0,0,1,737.71,215.33Z" transform="translate(-66.59 -58.31)"/><circle class="cls-2" cx="158.42" cy="137.08" r="20.75"/><path class="cls-1" d="M225,201.5a6.11,6.11,0,1,0-6.11-6.11A6.17,6.17,0,0,0,225,201.5Z" transform="translate(-66.59 -58.31)"/><line class="cls-3" x1="158.42" y1="137.08" x2="170.26" y2="125.8"/><circle class="cls-2" cx="115.46" cy="157.84" r="20.75"/><path class="cls-1" d="M182.06,222.25a6.11,6.11,0,1,0-6.11-6.11,6.19,6.19,0,0,0,6.11,6.11Z" transform="translate(-66.59 -58.31)"/><line class="cls-3" x1="115.46" y1="157.84" x2="104.33" y2="145.86"/><circle class="cls-2" cx="201.77" cy="157.84" r="20.75"/><path class="cls-1" d="M268.36,222.25a6.11,6.11,0,1,0-6.11-6.11,6.17,6.17,0,0,0,6.11,6.11Z" transform="translate(-66.59 -58.31)"/><line class="cls-3" x1="201.77" y1="157.84" x2="205.04" y2="141.81"/><path class="cls-4" d="M794.1,237.25" transform="translate(-66.59 -58.31)"/><path class="cls-4" d="M117.12,204.6" transform="translate(-66.59 -58.31)"/><rect class="cls-1" x="297.51" width="12.54" height="70.91"/><polygon class="cls-1" points="377.94 60.66 336.15 0 320.46 0 370.4 70.91 386.77 70.91 435.43 0 418.46 0 377.94 60.66"/><polygon class="cls-1" points="445.84 70.91 582.06 70.91 582.06 58.37 458.38 58.37 458.38 43.89 582.06 43.89 582.06 30.11 458.38 30.11 458.38 12.54 582.06 12.54 582.06 0 445.84 0 445.84 70.91"/><polygon class="cls-1" points="718.28 0 718.28 57.55 607.13 0 594.6 0 594.6 70.91 607.13 70.91 607.13 13.36 718.28 70.91 730.82 70.91 730.82 0 718.28 0"/><path class="cls-1" d="M188.08,58.31H66.59v70.91H188.08a14.74,14.74,0,0,0,14.73-14.74V73A14.73,14.73,0,0,0,188.08,58.31Zm2.19,50a8.41,8.41,0,0,1-8.41,8.42H79.13V70.84H181.86a8.41,8.41,0,0,1,8.41,8.42Z" transform="translate(-66.59 -58.31)"/><path class="cls-1" d="M336.83,58.31H215.35v70.91h12.53V106.3h87l20.95,22.92h15.7l-21-22.92h6.22a14.74,14.74,0,0,0,14.74-14.73V73A14.73,14.73,0,0,0,336.83,58.31Zm2.2,27a8.42,8.42,0,0,1-8.42,8.42H227.88V70.84H330.61A8.42,8.42,0,0,1,339,79.26Z" transform="translate(-66.59 -58.31)"/><path class="cls-1" d="M140.35,193.55c-2.61.42-5.2.85-7.75,1.29-5.79,1-18,3.37-27,6.49l12.84,9.93c4.46-.88,9.15-1.76,14-2.6A99.63,99.63,0,0,1,140.35,193.55Z" transform="translate(-66.59 -58.31)"/><path class="cls-1" d="M464.92,178s-48.75-3-90-2.69c-37.73.33-74.14,3.75-75.2,3.79a83.32,83.32,0,0,1,9.71,13.26c57.89-7.38,149.82-2.75,149.82-2.75Z" transform="translate(-66.59 -58.31)"/><path class="cls-1" d="M136.83,231.53l-9.92,2.88,2-9.63c5.26-21.5,16.85-39.89,33.52-53.2a103.1,103.1,0,0,1,111.93-9.92c18.64,10.16,30.67,22.82,39.58,43l1.89,5.12-6,6.32-1.88-4.27C289,169,249,156.59,217.82,159.33c-39.3,3.45-70.65,30-79.88,67.67Z" transform="translate(-66.59 -58.31)"/><circle class="cls-5" cx="158.42" cy="192.05" r="81.12"/><circle class="cls-1" cx="158.42" cy="192.05" r="24.81"/><path d="M207.54,268c5.55,2.49,6.93,6.29,7.44,8.8a18.87,18.87,0,0,1,.33,2.36l3.6,43.9c0,1.16-.71,1.51-2.79,3.84a.71.71,0,0,0,.43,1.17l3.68.49c1.72.46,8.33.21,9.11,0l2.86-.38a1.14,1.14,0,0,0,.68-1.9c-1.64-1.78-2.23-2.17-2.23-3.22l3.48-42.35A15.76,15.76,0,0,1,239,270.43a15,15,0,0,1,3.56-2.5.7.7,0,0,0-.32-1.32H207.82A.7.7,0,0,0,207.54,268Zm15.3,11.83a2.18,2.18,0,0,1,4.35,0q.06,2.06.06,4.2c0,8.45-.78,24.42-1.42,33a.82.82,0,0,1-1.63,0c-.64-8.54-1.43-24.51-1.43-33C222.77,282.55,222.8,281.15,222.84,279.78Z" transform="translate(-66.59 -58.31)"/><path d="M244.78,265.13c1.54-5.88,5.06-7.87,7.45-8.79a18.08,18.08,0,0,1,2.27-.71l43.61-10.77c1.14-.19,1.61.45,4.24,2.12a.71.71,0,0,0,1.09-.61l-.12-3.72c.17-1.77-1.16-8.24-1.5-9l-.85-2.76a1.13,1.13,0,0,0-2-.36c-1.49,1.92-1.78,2.55-2.81,2.73l-43.24,3.53a15.72,15.72,0,0,1-10.89-3.08,15.19,15.19,0,0,1-3-3.1.7.7,0,0,0-1.26.53l5.65,33.91A.71.71,0,0,0,244.78,265.13Zm9.15-17a2.18,2.18,0,0,1-.71-4.3c1.34-.26,2.72-.52,4.13-.75,8.33-1.39,24.21-3.24,32.74-4a.82.82,0,0,1,.27,1.61c-8.33,2-23.94,5.44-32.28,6.83C256.67,247.7,255.29,247.91,253.93,248.1Z" transform="translate(-66.59 -58.31)"/><path d="M206.63,264.41l5.65-33.91A.7.7,0,0,0,211,230a15.46,15.46,0,0,1-3,3.1,15.72,15.72,0,0,1-10.89,3.08l-43.25-3.53c-1-.17-1.31-.81-2.8-2.73a1.13,1.13,0,0,0-2,.36L148.2,233c-.33.74-1.66,7.21-1.49,9l-.12,3.71a.7.7,0,0,0,1.08.61c2.64-1.67,3.1-2.31,4.24-2.12L195.52,255a21.55,21.55,0,0,1,2.28.71c2.39.92,5.91,2.91,7.45,8.79A.71.71,0,0,0,206.63,264.41ZM192,246.81c-8.34-1.39-24.85-4.79-33.18-6.82a.82.82,0,0,1,.27-1.62c8.54.78,25.31,2.63,33.64,4,1.41.24,2.79.49,4.13.75a2.18,2.18,0,0,1-.71,4.3C194.74,247.25,193.36,247,192,246.81Z" transform="translate(-66.59 -58.31)"/><circle class="cls-6" cx="158.42" cy="192.05" r="14.23"/></svg>